# xmcd
#
# Track frame offsets:
# 150
# 4229
# 22662
# 34994
# 47214
# 62526
# 70660
# 83753
# 101777
# 117833
# 132732
# 149716
#
# Disc length: 2182 seconds
#
#
# Revision: 0
# Processed by: cddbd v1.5.1PL2 Copyright (c) Steve Scherf et al.
# Submitted via: FreeRIP 2.944 
#
DISCID=a708840c
DTITLE=Listener and EQ - Ozark Empire
DYEAR=2005
DGENRE=Hip Hop
TTITLE0=Backwoods Preacher Man
TTITLE1=Ozark Empire
TTITLE2=I have been waiting for this moment all my life, hold on
TTITLE3=In the Woods You know where your enemies are
TTITLE4=You are so special because you are unique
TTITLE5=I'd Like to Offer You My Dearest apologies
TTITLE6=When No one else will be your friend I will do the job
TTITLE7=The Music that The Angels Do
TTITLE8=It's time for drastic measures they're not taking you seriously
TTITLE9=What Would you do if I'm not what I'm supposed to be
TTITLE10=Your life will never dull or your money back
TTITLE11=Officer you have the wrong man I am not that man
EXTD=
EXTT0=
EXTT1=
EXTT2=
EXTT3=
EXTT4=
EXTT5=
EXTT6=
EXTT7=
EXTT8=
EXTT9=
EXTT10=
EXTT11=
PLAYORDER=
